# xmcd
#
# Track frame offsets: 
#        150
#        8943
#        14443
#        19694
#        25515
#        30090
#        36309
#        40457
#        48625
#        66252
#        72326
#        77332
#        83232
#        90682
#        100685
#        116233
#        127368
#        133115
#        137392
#        143656
#        148483
#        152249
#        159678
#        168647
#        174845
#        184429
#        193855
#
# Disc length: 2712 seconds
#
# Revision: 0
# Processed by: cddbd v1.5.1PL2 Copyright (c) Steve Scherf et al.
# Submitted via: ExactAudioCopy v0.95b2
#
DISCID=7f0a961b
DTITLE=Δημήτρης Κοντολάζος - 10 Νέα and 45 Live cd2
DYEAR=2006
DGENRE=Folk
TTITLE0=Πες Το Μου Ξανά
TTITLE1=Ταχυπαλμία
TTITLE2=Είσαι Αμαρτωλή
TTITLE3=Μια Ματιά Σου Μόνο Φτάνει
TTITLE4=Φοβερή
TTITLE5=Δε Μ' Αγαπάς
TTITLE6=Ασ' Τη Να Φύγει
TTITLE7=Τι Να Κάνω Πες Μου
TTITLE8=’γνωστε Φίλε (Δυο Καράβια) (Με Κώστα Καραγέλη)
TTITLE9=Λίγο Λίγο
TTITLE10=Μου Λείπεις Εσύ
TTITLE11=Δεν Μπορεί Κάτι Πρέπει Να Γίνει
TTITLE12=Ήμασταν Θεοί
TTITLE13=Τ' Αποτσίγαρα
TTITLE14=Όλα Τα 'Δωσα Για Σένα
TTITLE15=Αν Το Λες Αυτό Αγάπη
TTITLE16=Προσευχή
TTITLE17=Μη Μ' Αφήνεις Μόνο Μου
TTITLE18=Αυτή Η Νύχτα Μένει
TTITLE19=Φύγε Κι ’σε Με
TTITLE20=Τώρα Κλαις
TTITLE21=Καλή Τύχη
TTITLE22=Μπαρμπαλιάς
TTITLE23=Το Δικό Σου Αμάρτημα
TTITLE24=Εγώ Είμαι Αετός
TTITLE25=Πάρε Τα Χνάρια Μου
TTITLE26=Γύρισε Κοντά Μου
EXTD=
EXTT0=
EXTT1=
EXTT2=
EXTT3=
EXTT4=
EXTT5=
EXTT6=
EXTT7=
EXTT8=
EXTT9=
EXTT10=
EXTT11=
EXTT12=
EXTT13=
EXTT14=
EXTT15=
EXTT16=
EXTT17=
EXTT18=
EXTT19=
EXTT20=
EXTT21=
EXTT22=
EXTT23=
EXTT24=
EXTT25=
EXTT26=
PLAYORDER=
